<svg width="78" height="83" viewBox="0 0 78 83" fill="none" xmlns="http://www.w3.org/2000/svg">
<mask id="mask0_5_63089" style="mask-type:luminance" maskUnits="userSpaceOnUse" x="0" y="0" width="78" height="83">
<path d="M78 0.772461H0V82.3608H78V0.772461Z" fill="white"/>
</mask>
<g mask="url(#mask0_5_63089)">
<path d="M29.1844 50.3475C28.8182 50.014 28.3253 49.7705 27.7058 49.6191C27.1699 49.4867 26.8897 49.4204 26.148 49.4204L14.3848 49.4346C14.3848 49.4346 15.1648 53.0836 17.0593 56.3236C17.8077 56.3236 27.179 56.2763 27.7171 56.1462C28.2643 56.0138 28.7864 55.7938 29.2003 55.4154C29.883 54.7935 30.2267 54.4813 30.2267 52.8969C30.2267 52.4073 30.1905 51.9935 30.0413 51.5772C29.8875 51.1373 29.6253 50.7472 29.1844 50.3475Z" fill="white"/>
<path d="M46.3945 13.7183V26.7038H62.284C58.662 20.5149 53.0189 15.8679 46.3945 13.7183Z" fill="white"/>
<path d="M39 0.772461C17.4607 0.772461 0 19.0364 0 41.5667C0 64.0969 17.4607 82.3608 39 82.3608C60.5393 82.3608 78 64.0969 78 41.5667C78 19.0364 60.5393 0.772461 39 0.772461ZM8.85809 26.9044L13.9383 26.8807V30.8845C13.9383 32.0054 14.8064 32.9136 15.8781 32.9136H27.6866H28.6566C29.7281 32.9136 30.5963 32.0054 30.5963 30.8845V10.9296C30.5963 9.26475 31.8873 7.91441 33.479 7.91441H35.6766V30.8822C35.6766 34.9379 32.5339 38.2251 28.6566 38.2251H16.848H15.8781C12.0007 38.2251 8.85809 34.9379 8.85809 30.8822V26.9044ZM35.8642 75.0297H33.8701C33.0517 75.0297 32.3147 74.7176 31.781 74.2139C31.2565 73.7172 30.931 73.029 30.931 72.2699V64.8016C30.931 64.1205 30.8541 63.5245 30.7049 63.0208C30.533 62.4438 30.2595 61.985 29.8887 61.6469C29.5225 61.3134 29.0296 61.0699 28.4101 60.9185C27.8743 60.7861 27.2321 60.7198 26.4884 60.7198H19.7397C19.7397 60.7198 23.0813 64.8181 25.1928 66.1921L25.3014 71.454C12.6722 64.1347 9.89808 52.9015 9.07965 48.0937L8.64556 44.9461L25.3557 44.9484C27.6391 44.9484 28.817 45.0856 30.3477 45.36C31.8104 45.6224 32.9205 46.0055 33.6779 46.5069C34.3901 46.9799 34.9259 47.6349 35.2876 48.4745C35.672 49.3661 35.8642 50.4728 35.8642 51.79C35.8642 52.5255 35.7692 54.1643 35.5702 54.8336C35.3781 55.4793 35.0706 56.0799 34.6026 56.5908C34.1979 57.0354 33.6893 57.3948 33.0765 57.6692C32.3688 57.986 31.5888 58.1611 30.8157 58.2533C31.7517 58.3999 32.5588 58.615 33.2325 58.9036C33.8633 59.1732 34.3674 59.4996 34.745 59.8827C35.1203 60.2658 35.4029 60.6938 35.5883 61.2023C35.785 61.7368 35.8822 62.3729 35.8822 63.1486L35.8642 75.0297ZM44.3628 8.32826C51.1771 9.73536 57.304 13.3371 62.0925 18.7408C66.8991 24.1659 69.888 30.8892 70.7426 38.1872L70.7675 38.4001H66.2706L66.248 38.237C66.0513 36.7824 65.7506 35.3329 65.3549 33.9304L64.3964 31.2936H46.393V38.4001H45.3168C43.3974 38.4001 41.8351 36.7494 41.8329 34.7203L41.8171 7.93096L44.3628 8.32826ZM67.2948 49.4771H48.4866C47.2951 49.4771 46.3298 50.4869 46.3298 51.7332V53.6725C46.3433 54.8975 47.2974 55.8931 48.473 55.8931L59.3501 55.8883C59.3501 55.8883 59.3501 55.8883 59.3523 55.8883C61.4843 55.8883 63.2298 57.6336 63.3247 59.8613C63.3631 60.7813 63.0738 61.6705 62.6103 62.4367C62.6103 62.4367 56.2527 72.6128 41.8147 75.2639V70.8463C44.8218 70.002 50.0511 67.7529 54.288 64.3499C55.0658 63.6309 56.9061 62.2168 58.1722 60.6607C58.1789 60.6536 58.1722 60.6418 58.1631 60.6418L48.473 60.6465C44.7991 60.6465 41.8102 57.1583 41.7853 53.3177V53.6228C41.7853 53.6322 41.7831 53.2586 41.7831 53.2681C41.7831 53.2846 41.7853 53.3012 41.7853 53.3177V51.7332C41.7853 47.8619 44.7856 44.7238 48.4866 44.7238H70.1344L70.1706 46.3981C70.2091 48.0867 68.9113 49.4771 67.2948 49.4771Z" fill="white"/>
</g>
</svg>
